<svg width="26" height="26" viewBox="0 0 26 26" fill="none" xmlns="http://www.w3.org/2000/svg">
<path d="M9.61664 5.67285C10.0284 5.26124 10.7068 5.26116 11.1186 5.67285C11.5303 6.08459 11.5302 6.76299 11.1186 7.1748L5.2934 13L11.1186 18.8252C11.5301 19.237 11.5303 19.9154 11.1186 20.3271L11.1176 20.3262C10.9116 20.5429 10.6282 20.6386 10.3676 20.6387C10.0992 20.6387 9.82845 20.5388 9.61664 20.3271L3.04047 13.751C2.62878 13.3392 2.62885 12.6608 3.04047 12.249L9.61664 5.67285Z" fill="black" stroke="black" stroke-width="0.5"/>
<path d="M22.2083 11.9375C22.7905 11.9375 23.2708 12.4178 23.2708 13C23.2708 13.5822 22.7905 14.0625 22.2083 14.0625H3.97583C3.39359 14.0625 2.91333 13.5822 2.91333 13C2.91333 12.4178 3.39359 11.9375 3.97583 11.9375H22.2083Z" fill="black" stroke="black" stroke-width="0.5"/>
</svg>
