<svg width="26" height="24" viewBox="0 0 26 24" fill="none" xmlns="http://www.w3.org/2000/svg">
<path d="M9.61664 4.67383C10.0284 4.26222 10.7068 4.26214 11.1186 4.67383C11.5303 5.08557 11.5302 5.76397 11.1186 6.17578L5.2934 12.001L11.1186 17.8262C11.5301 18.238 11.5303 18.9164 11.1186 19.3281L11.1176 19.3271C10.9116 19.5439 10.6282 19.6396 10.3676 19.6396C10.0992 19.6396 9.82845 19.5398 9.61664 19.3281L3.04047 12.752C2.62878 12.3402 2.62885 11.6618 3.04047 11.25L9.61664 4.67383Z" fill="white" stroke="white" stroke-width="0.5"/>
<path d="M22.2083 10.9375C22.7905 10.9375 23.2708 11.4178 23.2708 12C23.2708 12.5822 22.7905 13.0625 22.2083 13.0625H3.97583C3.39359 13.0625 2.91333 12.5822 2.91333 12C2.91333 11.4178 3.39359 10.9375 3.97583 10.9375H22.2083Z" fill="white" stroke="white" stroke-width="0.5"/>
</svg>
