<svg width="106" height="24" viewBox="0 0 106 24" fill="none" xmlns="http://www.w3.org/2000/svg">
<path d="M5.24997 10.525H17.01V15.075H5.24997V10.525ZM5.66997 24H-2.91467e-05V-0.500002H18.515V4.05H5.66997V24ZM34.0142 24.42C32.0776 24.42 30.2809 24.105 28.6242 23.475C26.9909 22.845 25.5676 21.9583 24.3542 20.815C23.1642 19.6717 22.2309 18.33 21.5542 16.79C20.9009 15.25 20.5742 13.57 20.5742 11.75C20.5742 9.93 20.9009 8.25 21.5542 6.71C22.2309 5.17 23.1759 3.82833 24.3892 2.685C25.6026 1.54167 27.0259 0.654998 28.6592 0.0249978C30.2926 -0.605001 32.0659 -0.92 33.9792 -0.92C35.9159 -0.92 37.6892 -0.605001 39.2992 0.0249978C40.9326 0.654998 42.3442 1.54167 43.5342 2.685C44.7476 3.82833 45.6926 5.17 46.3692 6.71C47.0459 8.22667 47.3842 9.90667 47.3842 11.75C47.3842 13.57 47.0459 15.2617 46.3692 16.825C45.6926 18.365 44.7476 19.7067 43.5342 20.85C42.3442 21.97 40.9326 22.845 39.2992 23.475C37.6892 24.105 35.9276 24.42 34.0142 24.42ZM33.9792 19.59C35.0759 19.59 36.0792 19.4033 36.9892 19.03C37.9226 18.6567 38.7392 18.12 39.4392 17.42C40.1392 16.72 40.6759 15.8917 41.0492 14.935C41.4459 13.9783 41.6442 12.9167 41.6442 11.75C41.6442 10.5833 41.4459 9.52167 41.0492 8.565C40.6759 7.60833 40.1392 6.78 39.4392 6.08C38.7626 5.38 37.9576 4.84333 37.0242 4.47C36.0909 4.09667 35.0759 3.91 33.9792 3.91C32.8826 3.91 31.8676 4.09667 30.9342 4.47C30.0242 4.84333 29.2192 5.38 28.5192 6.08C27.8192 6.78 27.2709 7.60833 26.8742 8.565C26.5009 9.52167 26.3142 10.5833 26.3142 11.75C26.3142 12.8933 26.5009 13.955 26.8742 14.935C27.2709 15.8917 27.8076 16.72 28.4842 17.42C29.1842 18.12 30.0009 18.6567 30.9342 19.03C31.8676 19.4033 32.8826 19.59 33.9792 19.59ZM63.5455 24.42C61.6088 24.42 59.8121 24.105 58.1555 23.475C56.5221 22.845 55.0988 21.9583 53.8855 20.815C52.6955 19.6717 51.7621 18.33 51.0855 16.79C50.4321 15.25 50.1055 13.57 50.1055 11.75C50.1055 9.93 50.4321 8.25 51.0855 6.71C51.7621 5.17 52.7071 3.82833 53.9205 2.685C55.1338 1.54167 56.5571 0.654998 58.1905 0.0249978C59.8238 -0.605001 61.5971 -0.92 63.5105 -0.92C65.4471 -0.92 67.2205 -0.605001 68.8305 0.0249978C70.4638 0.654998 71.8755 1.54167 73.0655 2.685C74.2788 3.82833 75.2238 5.17 75.9005 6.71C76.5771 8.22667 76.9155 9.90667 76.9155 11.75C76.9155 13.57 76.5771 15.2617 75.9005 16.825C75.2238 18.365 74.2788 19.7067 73.0655 20.85C71.8755 21.97 70.4638 22.845 68.8305 23.475C67.2205 24.105 65.4588 24.42 63.5455 24.42ZM63.5105 19.59C64.6071 19.59 65.6105 19.4033 66.5205 19.03C67.4538 18.6567 68.2705 18.12 68.9705 17.42C69.6705 16.72 70.2071 15.8917 70.5805 14.935C70.9771 13.9783 71.1755 12.9167 71.1755 11.75C71.1755 10.5833 70.9771 9.52167 70.5805 8.565C70.2071 7.60833 69.6705 6.78 68.9705 6.08C68.2938 5.38 67.4888 4.84333 66.5555 4.47C65.6221 4.09667 64.6071 3.91 63.5105 3.91C62.4138 3.91 61.3988 4.09667 60.4655 4.47C59.5555 4.84333 58.7505 5.38 58.0505 6.08C57.3505 6.78 56.8021 7.60833 56.4055 8.565C56.0321 9.52167 55.8455 10.5833 55.8455 11.75C55.8455 12.8933 56.0321 13.955 56.4055 14.935C56.8021 15.8917 57.3388 16.72 58.0155 17.42C58.7155 18.12 59.5321 18.6567 60.4655 19.03C61.3988 19.4033 62.4138 19.59 63.5105 19.59ZM81.1767 24V-0.500002H92.3067C94.9667 -0.500002 97.3117 0.013332 99.3417 1.04C101.372 2.04333 102.958 3.455 104.102 5.275C105.245 7.095 105.817 9.25333 105.817 11.75C105.817 14.2233 105.245 16.3817 104.102 18.225C102.958 20.045 101.372 21.4683 99.3417 22.495C97.3117 23.4983 94.9667 24 92.3067 24H81.1767ZM86.8467 19.345H92.0267C93.6601 19.345 95.0717 19.0417 96.2617 18.435C97.4751 17.805 98.4084 16.9183 99.0617 15.775C99.7384 14.6317 100.077 13.29 100.077 11.75C100.077 10.1867 99.7384 8.845 99.0617 7.725C98.4084 6.58167 97.4751 5.70667 96.2617 5.1C95.0717 4.47 93.6601 4.155 92.0267 4.155H86.8467V19.345Z" fill="white"/>
</svg>
