<svg width="163" height="33" viewBox="0 0 163 33" fill="none" xmlns="http://www.w3.org/2000/svg">
<path d="M16.1113 32.2958C11.5754 32.2958 8.03735 31.0408 5.49724 28.5309C2.98736 26.0211 1.73242 22.4377 1.73242 17.7808V11.6328H9.08061V17.5087C9.08061 23.1937 11.4393 26.0362 16.1566 26.0362C18.4548 26.0362 20.2087 25.3558 21.4183 23.995C22.6279 22.604 23.2327 20.4419 23.2327 17.5087V0H30.4902V17.7808C30.4902 22.4377 29.2201 26.0211 26.68 28.5309C24.1701 31.0408 20.6472 32.2958 16.1113 32.2958Z" fill="black"/>
<path d="M39.5641 5.98742H29.4036V0H57.0727V5.98742H46.9123V31.7514H39.5641V5.98742Z" fill="black"/>
<path d="M12.3753 14.7266L0 0H9.03398L21.7806 14.7266H12.3753Z" fill="black"/>
<path d="M75.1142 27.302C73.4635 27.302 71.9436 27.0302 70.5546 26.4867C69.1656 25.9431 67.9578 25.1883 66.9311 24.222C65.9045 23.2356 65.1093 22.0882 64.5457 20.7797C63.982 19.4511 63.7002 18.0017 63.7002 16.4315C63.7002 14.8613 63.982 13.422 64.5457 12.1135C65.1093 10.7849 65.9045 9.63743 66.9311 8.67116C67.9578 7.68477 69.1656 6.91981 70.5546 6.37629C71.9436 5.83276 73.4534 5.561 75.084 5.561C76.7347 5.561 78.2445 5.83276 79.6134 6.37629C81.0024 6.91981 82.2102 7.68477 83.2369 8.67116C84.2635 9.63743 85.0587 10.7849 85.6223 12.1135C86.186 13.422 86.4678 14.8613 86.4678 16.4315C86.4678 18.0017 86.186 19.4511 85.6223 20.7797C85.0587 22.1083 84.2635 23.2557 83.2369 24.222C82.2102 25.1883 81.0024 25.9431 79.6134 26.4867C78.2445 27.0302 76.7448 27.302 75.1142 27.302ZM75.084 23.8596C76.1509 23.8596 77.1373 23.6785 78.0432 23.3161C78.9491 22.9538 79.7342 22.4404 80.3985 21.7761C81.0628 21.0917 81.5761 20.3066 81.9384 19.4209C82.3209 18.515 82.5122 17.5185 82.5122 16.4315C82.5122 15.3444 82.3209 14.358 81.9384 13.4723C81.5761 12.5664 81.0628 11.7813 80.3985 11.117C79.7342 10.4326 78.9491 9.90919 78.0432 9.54684C77.1373 9.18449 76.1509 9.00332 75.084 9.00332C74.0171 9.00332 73.0307 9.18449 72.1248 9.54684C71.2391 9.90919 70.454 10.4326 69.7695 11.117C69.1052 11.7813 68.5818 12.5664 68.1994 13.4723C67.837 14.358 67.6558 15.3444 67.6558 16.4315C67.6558 17.4984 67.837 18.4848 68.1994 19.3907C68.5818 20.2965 69.1052 21.0917 69.7695 21.7761C70.4339 22.4404 71.2189 22.9538 72.1248 23.3161C73.0307 23.6785 74.0171 23.8596 75.084 23.8596ZM102.882 27L95.877 5.86296H99.9535L106.204 24.9769H104.181L110.673 5.86296H114.296L120.607 24.9769H118.645L125.046 5.86296H128.79L121.785 27H117.618L111.851 9.75821H112.938L107.08 27H102.882ZM139.909 27V5.86296H143.14L156.395 22.1385H154.795V5.86296H158.69V27H155.459L142.203 10.7245H143.804V27H139.909Z" fill="black"/>
</svg>
