<svg width="80" height="46" viewBox="0 0 80 46" fill="none" xmlns="http://www.w3.org/2000/svg">
<path d="M22.5836 45.2695C16.2256 45.2695 11.2663 43.5104 7.70574 39.9923C4.18761 36.4742 2.42854 31.4513 2.42854 24.9237V16.3059H12.7286V24.5422C12.7286 32.511 16.0348 36.4954 22.6472 36.4954C25.8687 36.4954 28.3271 35.5417 30.0226 33.6342C31.7181 31.6844 32.5658 28.6537 32.5658 24.5422V0H42.7388V24.9237C42.7388 31.4513 40.9585 36.4742 37.398 39.9923C33.8798 43.5104 28.9417 45.2695 22.5836 45.2695Z" fill="url(#paint0_linear_2075_15297)"/>
<path d="M55.4578 8.39266H41.2157V0H80V8.39266H65.7579V44.5065H55.4578V8.39266Z" fill="url(#paint1_linear_2075_15297)"/>
<path d="M17.3467 20.6426L0 0H12.6631L30.5302 20.6426H17.3467Z" fill="url(#paint2_linear_2075_15297)"/>
<defs>
<linearGradient id="paint0_linear_2075_15297" x1="3.38028" y1="41.6542" x2="83.0103" y2="6.89648" gradientUnits="userSpaceOnUse">
<stop stop-color="#5FD3F8"/>
<stop offset="0.505208" stop-color="#3471F5"/>
<stop offset="1" stop-color="#E467F1"/>
</linearGradient>
<linearGradient id="paint1_linear_2075_15297" x1="3.38028" y1="41.6542" x2="83.0103" y2="6.89648" gradientUnits="userSpaceOnUse">
<stop stop-color="#5FD3F8"/>
<stop offset="0.505208" stop-color="#3471F5"/>
<stop offset="1" stop-color="#E467F1"/>
</linearGradient>
<linearGradient id="paint2_linear_2075_15297" x1="3.38028" y1="41.6542" x2="83.0103" y2="6.89648" gradientUnits="userSpaceOnUse">
<stop stop-color="#5FD3F8"/>
<stop offset="0.505208" stop-color="#3471F5"/>
<stop offset="1" stop-color="#E467F1"/>
</linearGradient>
</defs>
</svg>
