<svg width="43" height="24" viewBox="0 0 43 24" fill="none" xmlns="http://www.w3.org/2000/svg">
<path d="M11.9729 24C8.60212 24 5.9729 23.0674 4.08526 21.2022C2.22009 19.3371 1.28751 16.6742 1.28751 13.2135V8.6447H6.74818V13.0112C6.74818 17.236 8.50099 19.3483 12.0066 19.3483C13.7145 19.3483 15.0178 18.8427 15.9167 17.8315C16.8156 16.7978 17.265 15.191 17.265 13.0112V0H22.6583V13.2135C22.6583 16.6742 21.7145 19.3371 19.8268 21.2022C17.9617 23.0674 15.3437 24 11.9729 24Z" fill="white"/>
<path d="M29.4014 4.44944H21.8508V0H42.4126V4.44944H34.8621V23.5955H29.4014V4.44944Z" fill="white"/>
<path d="M9.19649 10.9438L0 0H6.71344L16.1858 10.9438H9.19649Z" fill="white"/>
</svg>
