<svg width="222" height="45" viewBox="0 0 222 45" fill="none" xmlns="http://www.w3.org/2000/svg">
<path d="M21.97 44.0397C15.7846 44.0397 10.9601 42.3284 7.49626 38.9058C4.07371 35.4833 2.36243 30.5968 2.36243 24.2466V15.8629H12.3827V23.8754C12.3827 31.6277 15.5991 35.5039 22.0318 35.5039C25.1657 35.5039 27.5574 34.5761 29.2068 32.7205C30.8563 30.8236 31.681 27.8753 31.681 23.8754V0H41.5775V24.2466C41.5775 30.5968 39.8456 35.4833 36.3818 38.9058C32.9593 42.3284 28.1553 44.0397 21.97 44.0397Z" fill="white"/>
<path d="M53.951 8.16466H40.0959V0H77.8265V8.16466H63.9713V43.2974H53.951V8.16466Z" fill="white"/>
<path d="M16.8754 20.0818L0 0H12.3191L29.7008 20.0818H16.8754Z" fill="white"/>
<path d="M102.429 37.4118C100.178 37.4118 98.1051 37.0412 96.211 36.3C94.3169 35.5588 92.6698 34.5294 91.2698 33.2118C89.8698 31.8667 88.7855 30.302 88.0169 28.5177C87.2483 26.706 86.864 24.7295 86.864 22.5884C86.864 20.4472 87.2483 18.4845 88.0169 16.7002C88.7855 14.8885 89.8698 13.3238 91.2698 12.0061C92.6698 10.661 94.3169 9.61792 96.211 8.87675C98.1051 8.13558 100.164 7.765 102.387 7.765C104.638 7.765 106.697 8.13558 108.564 8.87675C110.458 9.61792 112.105 10.661 113.505 12.0061C114.905 13.3238 115.989 14.8885 116.758 16.7002C117.526 18.4845 117.911 20.4472 117.911 22.5884C117.911 24.7295 117.526 26.706 116.758 28.5177C115.989 30.3295 114.905 31.8942 113.505 33.2118C112.105 34.5294 110.458 35.5588 108.564 36.3C106.697 37.0412 104.652 37.4118 102.429 37.4118ZM102.387 32.7177C103.842 32.7177 105.187 32.4706 106.423 31.9765C107.658 31.4824 108.728 30.7824 109.634 29.8765C110.54 28.9432 111.24 27.8726 111.734 26.6648C112.256 25.4295 112.517 24.0707 112.517 22.5884C112.517 21.106 112.256 19.761 111.734 18.5531C111.24 17.3178 110.54 16.2473 109.634 15.3414C108.728 14.4081 107.658 13.6944 106.423 13.2002C105.187 12.7061 103.842 12.4591 102.387 12.4591C100.932 12.4591 99.5874 12.7061 98.3521 13.2002C97.1443 13.6944 96.0737 14.4081 95.1404 15.3414C94.2345 16.2473 93.5208 17.3178 92.9992 18.5531C92.5051 19.761 92.2581 21.106 92.2581 22.5884C92.2581 24.0433 92.5051 25.3884 92.9992 26.6236C93.5208 27.8589 94.2345 28.9432 95.1404 29.8765C96.0463 30.7824 97.1168 31.4824 98.3521 31.9765C99.5874 32.4706 100.932 32.7177 102.387 32.7177ZM140.254 37L130.701 8.17676H136.26L144.784 34.2412H142.025L150.878 8.17676H155.819L164.424 34.2412H161.748L170.477 8.17676H175.583L166.03 37H160.348L152.483 13.4885H153.966L145.978 37H140.254ZM190.744 37V8.17676H195.15L213.226 30.3707H211.044V8.17676H216.356V37H211.95L193.874 14.8061H196.056V37H190.744Z" fill="white"/>
</svg>
