<svg width="29" height="29" viewBox="0 0 29 29" fill="none" xmlns="http://www.w3.org/2000/svg">
<path d="M18.8199 14.4954C18.8199 16.8871 16.8872 18.8198 14.4955 18.8198C12.1037 18.8198 10.171 16.8871 10.171 14.4954C10.171 12.1036 12.1037 10.1709 14.4955 10.1709C16.8872 10.1709 18.8199 12.1036 18.8199 14.4954Z" stroke="black" stroke-width="1.81193" stroke-linecap="round" stroke-linejoin="round"/>
<path d="M14.4953 24.4848C18.7594 24.4848 22.7336 21.9722 25.4998 17.6236C26.5869 15.9204 26.5869 13.0575 25.4998 11.3543C22.7336 7.0057 18.7594 4.49316 14.4953 4.49316C10.2313 4.49316 6.25711 7.0057 3.4909 11.3543C2.40375 13.0575 2.40375 15.9204 3.4909 17.6236C6.25711 21.9722 10.2313 24.4848 14.4953 24.4848Z" stroke="black" stroke-width="1.81193" stroke-linecap="round" stroke-linejoin="round"/>
</svg>
