<svg width="24" height="24" viewBox="0 0 24 24" fill="none" xmlns="http://www.w3.org/2000/svg">
<path d="M12 21.6496C11.69 21.6496 11.39 21.6096 11.14 21.5196C7.32 20.2096 1.25 15.5596 1.25 8.68961C1.25 5.18961 4.08 2.34961 7.56 2.34961C9.25 2.34961 10.83 3.00961 12 4.18961C13.17 3.00961 14.75 2.34961 16.44 2.34961C19.92 2.34961 22.75 5.19961 22.75 8.68961C22.75 15.5696 16.68 20.2096 12.86 21.5196C12.61 21.6096 12.31 21.6496 12 21.6496ZM13.8188 7.04719C15.5 7.5 15 10.33 15 13C15 19.83 12.86 19.5 11.5 19.5C11.68 19.56 11.32 18.56 11.5 18.5C11.14 17.7419 9.5 18.84 9.5 12C9.5 9.33 13.65 7 11 7C9.48 7 13.52 4.55961 12.61 5.78961C12.33 6.16961 11.69 6.16961 11.41 5.78961C10.48 4.54961 15.3388 7.04719 13.8188 7.04719Z" fill="#CE0000"/>
</svg>
