<svg width="24" height="24" viewBox="0 0 24 24" fill="none" xmlns="http://www.w3.org/2000/svg">
<path d="M15.65 21.4102C15.22 21.4102 14.79 21.3202 14.44 21.1502L9.18998 18.5202C8.88998 18.3702 8.29998 18.3802 8.00998 18.5502L5.64998 19.9002C4.62998 20.4802 3.57998 20.5602 2.78998 20.0902C1.98998 19.6302 1.53998 18.6902 1.53998 17.5102V7.79016C1.53998 6.88016 2.13998 5.85016 2.92998 5.40016L7.25998 2.92016C7.98998 2.50016 9.09998 2.47016 9.84998 2.85016L15.1 5.48016C15.4 5.63016 15.98 5.61016 16.28 5.45016L18.63 4.11016C19.65 3.53016 20.7 3.45016 21.49 3.92016C22.29 4.38016 22.74 5.32016 22.74 6.50016V16.2302C22.74 17.1402 22.14 18.1702 21.35 18.6202L17.02 21.1002C16.64 21.3002 16.14 21.4102 15.65 21.4102ZM8.63998 16.9202C9.06998 16.9202 9.49998 17.0102 9.84998 17.1802L15.1 19.8102C15.4 19.9602 15.98 19.9402 16.28 19.7802L20.61 17.3002C20.93 17.1202 21.24 16.5802 21.24 16.2202V6.49016C21.24 5.86016 21.06 5.39016 20.73 5.21016C20.41 5.03016 19.91 5.10016 19.37 5.41016L17.02 6.75016C16.29 7.17016 15.18 7.20016 14.43 6.82016L9.17998 4.19016C8.87998 4.04016 8.29998 4.06016 7.99998 4.22016L3.66998 6.70016C3.34998 6.88016 3.03998 7.42016 3.03998 7.79016V17.5202C3.03998 18.1502 3.21998 18.6202 3.53998 18.8002C3.85998 18.9902 4.35998 18.9102 4.90998 18.6002L7.25998 17.2602C7.64998 17.0302 8.14998 16.9202 8.63998 16.9202Z" fill="#292D32"/>
<path d="M8.56 17.75C8.15 17.75 7.81 17.41 7.81 17V4C7.81 3.59 8.15 3.25 8.56 3.25C8.97 3.25 9.31 3.59 9.31 4V17C9.31 17.41 8.97 17.75 8.56 17.75Z" fill="#292D32"/>
<path d="M15.73 20.7491C15.32 20.7491 14.98 20.4091 14.98 19.9991V6.61914C14.98 6.20914 15.32 5.86914 15.73 5.86914C16.14 5.86914 16.48 6.20914 16.48 6.61914V19.9991C16.48 20.4091 16.14 20.7491 15.73 20.7491Z" fill="#292D32"/>
</svg>
