<svg width="26" height="26" viewBox="0 0 26 26" fill="none" xmlns="http://www.w3.org/2000/svg">
<g clip-path="url(#clip0_2075_11300)">
<path d="M19.1317 24.5589C18.5575 24.5589 17.8209 24.3747 16.9 23.833L13.6609 21.9155C13.325 21.7205 12.675 21.7205 12.35 21.9155L9.10003 23.833C7.18253 24.9705 6.05586 24.5155 5.54669 24.1472C5.04836 23.7789 4.26836 22.8364 4.77753 20.6697L5.54669 17.3439C5.63336 16.9972 5.46003 16.4014 5.20003 16.1414L2.51336 13.4547C1.17003 12.1114 1.27836 10.963 1.46253 10.3997C1.64669 9.83636 2.23169 8.83969 4.09503 8.52552L7.55086 7.95135C7.87586 7.89719 8.34169 7.55052 8.48253 7.25802L10.4 3.43385C11.2667 1.68969 12.4042 1.42969 13 1.42969C13.5959 1.42969 14.7334 1.68969 15.6 3.43385L17.5067 7.24719C17.6584 7.53969 18.1242 7.88635 18.4492 7.94052L21.905 8.51469C23.7792 8.82885 24.3642 9.82552 24.5375 10.3889C24.7109 10.9522 24.8192 12.1005 23.4867 13.4439L20.8 16.1414C20.54 16.4014 20.3775 16.9864 20.4534 17.3439L21.2225 20.6697C21.7209 22.8364 20.9517 23.7789 20.4534 24.1472C20.1825 24.3422 19.7492 24.5589 19.1317 24.5589ZM13 20.1389C13.5309 20.1389 14.0617 20.2689 14.4842 20.518L17.7234 22.4355C18.6659 22.9989 19.2617 22.9989 19.4892 22.8364C19.7167 22.6739 19.8792 22.0997 19.6409 21.038L18.8717 17.7122C18.6659 16.813 19.0017 15.6539 19.6517 14.993L22.3384 12.3064C22.8692 11.7755 23.1075 11.2555 22.9992 10.898C22.88 10.5405 22.3817 10.248 21.645 10.1289L18.1892 9.55469C17.355 9.41385 16.445 8.74219 16.0659 7.98385L14.1592 4.17052C13.8125 3.47719 13.3792 3.06552 13 3.06552C12.6209 3.06552 12.1875 3.47719 11.8517 4.17052L9.93419 7.98385C9.55503 8.74219 8.64503 9.41385 7.81086 9.55469L4.36586 10.1289C3.62919 10.248 3.13086 10.5405 3.01169 10.898C2.89253 11.2555 3.14169 11.7864 3.67253 12.3064L6.35919 14.993C7.00919 15.643 7.34503 16.813 7.13919 17.7122L6.37003 21.038C6.12086 22.1105 6.29419 22.6739 6.52169 22.8364C6.74919 22.9989 7.33419 22.988 8.28753 22.4355L11.5267 20.518C11.9384 20.2689 12.4692 20.1389 13 20.1389Z" fill="#8D8D8D"/>
</g>
<defs>
<clipPath id="clip0_2075_11300">
<rect width="26" height="26" fill="white"/>
</clipPath>
</defs>
</svg>
