<svg width="26" height="26" viewBox="0 0 26 26" fill="none" xmlns="http://www.w3.org/2000/svg">
<path d="M19.1316 24.5589C18.5575 24.5589 17.8208 24.3747 16.9 23.833L13.6608 21.9155C13.325 21.7205 12.675 21.7205 12.35 21.9155L9.09996 23.833C7.18246 24.9705 6.0558 24.5155 5.54663 24.1472C5.0483 23.7789 4.2683 22.8364 4.77746 20.6697L5.54663 17.3439C5.6333 16.9972 5.45997 16.4014 5.19997 16.1414L2.5133 13.4547C1.16996 12.1114 1.2783 10.963 1.46246 10.3997C1.64663 9.83636 2.23163 8.83969 4.09496 8.52552L7.5508 7.95135C7.8758 7.89719 8.34163 7.55052 8.48246 7.25802L10.4 3.43385C11.2666 1.68969 12.4041 1.42969 13 1.42969C13.5958 1.42969 14.7333 1.68969 15.6 3.43385L17.5066 7.24719C17.6583 7.53969 18.1241 7.88635 18.4491 7.94052L21.905 8.51469C23.7791 8.82885 24.3641 9.82552 24.5375 10.3889C24.7108 10.9522 24.8191 12.1005 23.4866 13.4439L20.8 16.1414C20.54 16.4014 20.3775 16.9864 20.4533 17.3439L21.2225 20.6697C21.7208 22.8364 20.9516 23.7789 20.4533 24.1472C20.1825 24.3422 19.7491 24.5589 19.1316 24.5589ZM13 20.1389C13.5308 20.1389 14.0616 20.2689 14.4841 20.518L17.7233 22.4355C18.6658 22.9989 19.2616 22.9989 19.4891 22.8364C19.7166 22.6739 19.8791 22.0997 19.6408 21.038L18.8716 17.7122C18.6658 16.813 19.0016 15.6539 19.6516 14.993L22.3383 12.3064C22.8691 11.7755 23.1075 11.2555 22.9991 10.898C22.88 10.5405 22.3816 10.248 21.645 10.1289L18.1891 9.55469C17.355 9.41385 16.445 8.74219 16.0658 7.98385L14.1591 4.17052C13.8125 3.47719 13.3791 3.06552 13 3.06552C12.6208 3.06552 12.1875 3.47719 11.8516 4.17052L9.93413 7.98385C9.55497 8.74219 8.64497 9.41385 7.8108 9.55469L4.3658 10.1289C3.62913 10.248 3.1308 10.5405 3.01163 10.898C2.89246 11.2555 3.14163 11.7864 3.67247 12.3064L6.35913 14.993C7.00913 15.643 7.34496 16.813 7.13913 17.7122L6.36997 21.038C6.1208 22.1105 6.29413 22.6739 6.52163 22.8364C6.74913 22.9989 7.33413 22.988 8.28747 22.4355L11.5266 20.518C11.9383 20.2689 12.4691 20.1389 13 20.1389Z" fill="#3971F5"/>
</svg>
