<svg width="26" height="26" viewBox="0 0 26 26" fill="none" xmlns="http://www.w3.org/2000/svg">
<path d="M16.2502 24.6455H9.7502C8.3202 24.6455 7.12853 24.5047 6.12103 24.2013C5.7527 24.093 5.51437 23.7355 5.53603 23.3563C5.80687 20.1172 9.08936 17.5713 13.0002 17.5713C16.911 17.5713 20.1827 20.1063 20.4644 23.3563C20.4969 23.7463 20.2585 24.093 19.8794 24.2013C18.8719 24.5047 17.6802 24.6455 16.2502 24.6455ZM7.2802 22.8147C7.9952 22.9555 8.8077 23.0205 9.7502 23.0205H16.2502C17.1927 23.0205 18.0052 22.9555 18.7202 22.8147C18.146 20.7347 15.7735 19.1963 13.0002 19.1963C10.2269 19.1963 7.85437 20.7347 7.2802 22.8147Z" fill="#8D8D8D"/>
<path d="M16.25 2.16699H9.74996C4.33329 2.16699 2.16663 4.33366 2.16663 9.75033V16.2503C2.16663 20.3453 3.40163 22.5878 6.34829 23.422C6.58663 20.6053 9.47913 18.3845 13 18.3845C16.5208 18.3845 19.4133 20.6053 19.6516 23.422C22.5983 22.5878 23.8333 20.3453 23.8333 16.2503V9.75033C23.8333 4.33366 21.6666 2.16699 16.25 2.16699ZM13 15.3511C10.855 15.3511 9.12162 13.607 9.12162 11.462C9.12162 9.31701 10.855 7.58366 13 7.58366C15.145 7.58366 16.8783 9.31701 16.8783 11.462C16.8783 13.607 15.145 15.3511 13 15.3511Z" stroke="#8D8D8D" stroke-width="1.5" stroke-linecap="round" stroke-linejoin="round"/>
<path d="M12.9999 16.163C10.4108 16.163 8.30908 14.0505 8.30908 11.4614C8.30908 8.87219 10.4108 6.77051 12.9999 6.77051C15.5891 6.77051 17.6908 8.87219 17.6908 11.4614C17.6908 14.0505 15.5891 16.163 12.9999 16.163ZM12.9999 8.39551C11.3099 8.39551 9.93408 9.77136 9.93408 11.4614C9.93408 13.1622 11.3099 14.538 12.9999 14.538C14.6899 14.538 16.0658 13.1622 16.0658 11.4614C16.0658 9.77136 14.6899 8.39551 12.9999 8.39551Z" fill="#8D8D8D"/>
</svg>
